<?xml version="1.0" standalone="no"?>
<!DOCTYPE svg PUBLIC "-//W3C//DTD SVG 20010904//EN"
 "http://www.w3.org/TR/2001/REC-SVG-20010904/DTD/svg10.dtd">
<svg version="1.0" xmlns="http://www.w3.org/2000/svg"
 width="256.000000pt" height="256.000000pt" viewBox="0 0 256.000000 256.000000"
 preserveAspectRatio="xMidYMid meet">

<g transform="translate(0.000000,256.000000) scale(0.100000,-0.100000)"
fill="#000000" stroke="none">
<path d="M1155 2490 c-467 -55 -875 -388 -1025 -838 -47 -143 -62 -234 -63
-382 -1 -318 109 -598 325 -826 368 -387 960 -490 1438 -249 339 171 575 482
646 852 36 187 15 437 -52 625 -122 340 -406 629 -733 749 -170 61 -376 88
-536 69z m492 -249 c39 -26 43 -53 43 -276 l0 -215 209 0 c207 0 210 0 238
-24 l28 -24 0 -307 0 -307 -28 -24 c-28 -24 -31 -24 -237 -24 l-209 0 -3 -230
c-3 -223 -4 -230 -26 -252 -22 -23 -26 -23 -316 -26 l-294 -3 -85 39 c-247
115 -423 308 -539 590 l-38 94 55 79 55 78 0 143 c1 185 10 198 143 198 l74 0
56 118 c31 65 60 144 66 177 6 33 19 71 30 85 22 31 66 38 92 14 18 -16 19
-16 19 15 0 44 16 70 53 87 47 20 582 16 614 -5z m-1213 -1247 c4 -11 -17 -42
-66 -97 l-73 -80 65 7 c36 3 83 9 106 12 33 5 42 2 48 -12 4 -9 3 -20 -1 -24
-4 -4 -66 -13 -138 -19 -119 -10 -131 -10 -143 6 -10 15 -6 23 30 63 107 114
153 160 159 160 4 0 10 -7 13 -16z m1713 -15 c9 -9 6 -24 -13 -60 -13 -27 -24
-51 -24 -53 0 -7 61 -39 65 -34 1 2 12 22 24 46 12 23 26 42 32 42 20 0 20
-29 0 -67 l-20 -40 34 -16 34 -16 25 54 c22 49 47 69 59 48 3 -5 -11 -41 -29
-81 -30 -67 -36 -73 -56 -66 -45 13 -218 104 -218 114 0 14 63 140 70 140 3 0
11 -5 17 -11z m-91 -203 c3 -7 -11 -29 -31 -49 -46 -46 -45 -71 7 -119 52 -48
96 -52 127 -11 l21 26 -22 24 c-20 21 -23 22 -39 7 -18 -16 -49 -13 -49 4 0 5
11 19 24 31 30 28 56 23 104 -18 l34 -29 -22 -41 c-22 -44 -71 -81 -106 -81
-30 0 -113 58 -135 94 -32 53 -18 112 37 155 31 24 43 26 50 7z m-1467 -48
c60 -69 65 -78 51 -91 -9 -9 -21 -1 -54 34 l-42 46 -28 -24 -28 -23 31 -36
c33 -37 37 -49 20 -60 -6 -3 -27 10 -47 29 l-37 36 -28 -21 -27 -20 41 -49
c38 -45 44 -74 15 -67 -18 4 -108 108 -104 120 5 13 181 167 192 167 5 1 25
-18 45 -41z m176 -164 c73 -51 82 -61 67 -76 -7 -7 -21 -4 -45 11 l-35 21 -57
-82 c-32 -46 -61 -87 -65 -91 -7 -8 -40 1 -40 12 0 3 29 47 64 96 l64 90 -31
26 c-19 16 -28 30 -23 38 10 16 25 10 101 -45z m1173 -55 c133 -89 129 -85
103 -99 -18 -9 -27 -7 -50 10 -36 25 -36 25 -73 -1 -28 -20 -29 -24 -23 -69 5
-38 3 -48 -10 -53 -8 -4 -18 -1 -20 6 -2 6 -20 66 -39 131 -26 89 -32 123 -24
133 6 7 15 13 20 13 5 0 57 -32 116 -71z m-200 -143 c36 -96 42 -120 31 -127
-24 -15 -32 -11 -112 57 l-77 65 26 -68 c32 -81 35 -106 13 -111 -22 -4 -115
238 -96 250 22 14 34 8 110 -57 43 -36 77 -63 77 -61 0 3 -13 39 -30 82 -30
78 -30 98 -3 92 10 -2 33 -48 61 -122z m-701 62 c6 -7 16 -58 23 -112 15 -113
12 -114 81 12 33 59 44 72 64 72 14 0 25 -1 25 -2 0 -2 -11 -61 -25 -133 -14
-71 -25 -130 -25 -131 0 -1 -9 0 -21 3 -16 5 -20 11 -16 32 3 14 8 44 12 66 6
40 6 40 -30 -22 -51 -89 -79 -84 -96 18 -10 62 -19 89 -19 56 0 -41 -23 -117
-35 -117 -25 0 -25 17 -4 132 25 139 25 138 42 138 8 0 19 -6 24 -12z m413
-145 c33 -69 60 -128 60 -130 0 -1 -10 -3 -23 -3 -17 0 -28 10 -40 35 -14 30
-22 35 -49 35 -44 0 -54 -9 -65 -50 -7 -25 -16 -36 -31 -38 -12 -2 -22 -1 -22
1 0 3 12 49 26 104 14 54 30 115 35 136 7 27 15 37 29 37 16 0 33 -28 80 -127z"/>
<path d="M892 2095 c-7 -14 -12 -34 -12 -45 0 -88 -177 -417 -378 -703 l-69
-99 19 -50 c10 -28 28 -69 40 -91 l21 -41 22 66 c12 36 35 82 51 103 26 35 28
44 29 132 0 80 3 97 18 108 24 18 43 10 90 -33 20 -20 37 -31 37 -24 0 17 61
83 74 79 6 -2 13 -19 16 -38 5 -32 8 -34 55 -41 27 -4 68 -14 92 -23 38 -15
150 -89 196 -129 23 -22 21 -63 -6 -105 -12 -20 -27 -45 -33 -56 -6 -11 -31
-26 -57 -33 -55 -15 -149 -96 -176 -151 -37 -73 -34 -160 9 -259 19 -43 27
-50 71 -66 27 -10 52 -16 54 -14 3 2 12 41 20 86 34 180 106 344 184 422 52
52 96 70 171 70 55 0 138 21 173 44 42 28 85 196 72 280 -12 73 -23 82 -115
89 -44 4 -99 12 -121 19 -56 16 -99 58 -99 96 0 66 -86 102 -250 105 l-95 2
-6 95 c-11 178 -61 283 -97 205z"/>
<path d="M1856 488 c13 -45 18 -49 39 -34 19 14 19 15 -5 35 -33 27 -43 26
-34 -1z"/>
<path d="M1370 318 c0 -7 -3 -23 -6 -35 -5 -20 -2 -23 20 -23 30 0 31 2 11 40
-17 32 -25 38 -25 18z"/>
</g>
</svg>
